<svg width="1400" height="360" viewBox="0 0 1400 360" fill="none" xmlns="http://www.w3.org/2000/svg">
  <title>Ban Kan logo</title>
  <desc>Minimal SVG logo for Ban Kan with hexagonal mark and wordmark.</desc>

  <!-- Transparent background -->

  <!-- Logo mark -->
  <g transform="translate(40,40)" stroke="#F5A623" stroke-width="10" stroke-linejoin="round" stroke-linecap="round">
    <!-- Outer hexagon -->
    <path d="M120 20 L206.6 70 L206.6 170 L120 220 L33.4 170 L33.4 70 Z"/>
    <!-- Inner bars / kanban lanes -->
    <g fill="#F5A623" stroke="none">
      <path d="M74 146 C74 142.7 76.7 140 80 140 H104 C107.3 140 110 142.7 110 146 V182 C110 185.3 107.3 188 104 188 H80 C76.7 188 74 185.3 74 182 V146 Z"/>
      <path d="M112 118 C112 114.7 114.7 112 118 112 H142 C145.3 112 148 114.7 148 118 V182 C148 185.3 145.3 188 142 188 H118 C114.7 188 112 185.3 112 182 V118 Z"/>
      <path d="M150 86 C150 82.7 152.7 80 156 80 H180 C183.3 80 186 82.7 186 86 V182 C186 185.3 183.3 188 180 188 H156 C152.7 188 150 185.3 150 182 V86 Z"/>
    </g>
  </g>

  <!-- Wordmark -->
  <g transform="translate(320,0)">
    <text x="0" y="210"
          fill="#E8E8F0"
          font-size="118"
          font-weight="800"
          letter-spacing="10"
          font-family="Syne, Inter, Arial, Helvetica, sans-serif">
      BAN KAN
    </text>
  </g>
</svg>
